<?xml version="1.0" standalone="no"?>
<!DOCTYPE svg PUBLIC "-//W3C//DTD SVG 20010904//EN"
 "http://www.w3.org/TR/2001/REC-SVG-20010904/DTD/svg10.dtd">
<svg version="1.0" xmlns="http://www.w3.org/2000/svg"
 width="832.000000pt" height="350.000000pt" viewBox="0 0 832.000000 350.000000"
 preserveAspectRatio="xMidYMid meet">

<g transform="translate(0.000000,350.000000) scale(0.100000,-0.100000)"
fill="#000000" stroke="none">
<path d="M1230 2367 c-194 -66 -328 -221 -360 -416 -53 -320 196 -611 523
-611 178 0 355 103 446 258 95 161 95 380 0 538 -68 112 -207 215 -329 243
-79 18 -208 13 -280 -12z m285 -12 c85 -23 165 -69 230 -133 155 -155 190
-394 87 -597 -31 -62 -141 -172 -208 -207 -158 -85 -353 -76 -511 24 -165 104
-256 305 -226 499 30 192 181 364 364 413 72 19 191 20 264 1z"/>
<path d="M1317 2209 c-115 -27 -223 -126 -257 -236 -26 -83 -25 -144 1 -229
27 -89 104 -169 194 -204 114 -43 239 -28 335 40 27 20 30 26 30 80 0 63 -15
88 -26 43 -12 -48 -42 -99 -74 -126 -92 -78 -229 -19 -296 126 -26 56 -29 72
-28 167 0 118 14 167 67 237 96 128 277 101 321 -48 20 -66 36 -61 36 10 l0
61 -47 31 c-84 53 -168 69 -256 48z"/>
<path d="M1347 1953 c-13 -12 -8 -170 6 -181 9 -8 33 1 90 34 42 25 77 48 77
53 0 13 -31 36 -91 70 -57 32 -71 36 -82 24z m82 -49 c34 -20 61 -39 61 -43 0
-6 -113 -71 -124 -71 -3 0 -6 34 -6 75 0 41 2 75 4 75 3 0 32 -16 65 -36z"/>
<path d="M5703 2265 c-21 -9 -35 -23 -39 -40 -21 -82 89 -126 133 -53 14 22
14 31 4 56 -10 23 -49 55 -64 52 -1 -1 -16 -7 -34 -15z"/>
<path d="M3583 2195 c-113 -31 -191 -94 -240 -193 -25 -50 -28 -68 -28 -152 0
-117 24 -177 95 -244 59 -55 108 -81 186 -96 70 -14 151 -2 217 32 64 32 77
51 77 113 0 69 -21 74 -38 11 -31 -119 -159 -172 -255 -106 -148 102 -183 379
-67 537 96 130 282 99 323 -54 17 -63 37 -56 37 13 0 46 -4 60 -22 76 -33 28
-76 49 -133 64 -62 17 -86 17 -152 -1z"/>
<path d="M2220 2180 c0 -5 13 -10 28 -10 15 0 33 -5 40 -12 18 -18 17 -592 0
-605 -7 -6 -26 -13 -42 -17 -15 -4 -26 -9 -24 -11 5 -6 507 -10 512 -4 2 2 7
45 10 94 l7 90 -30 -62 c-38 -79 -63 -95 -160 -101 -123 -7 -121 -9 -121 163
l0 145 73 0 c81 0 100 -11 117 -66 6 -21 8 1 9 76 0 71 -2 100 -9 90 -5 -8
-10 -23 -10 -32 0 -26 -28 -36 -105 -39 l-70 -3 0 145 0 144 94 -1 c112 -2
138 -16 163 -90 l16 -49 1 83 1 82 -250 0 c-160 0 -250 -4 -250 -10z"/>
<path d="M2795 2180 c3 -5 16 -10 29 -10 45 0 46 -7 46 -320 0 -313 -1 -320
-47 -320 -13 0 -23 -4 -23 -10 0 -6 50 -10 130 -10 80 0 130 4 130 10 0 6 -8
10 -18 10 -41 0 -42 12 -42 342 l0 318 -106 0 c-67 0 -103 -4 -99 -10z"/>
<path d="M6475 2130 c-33 -34 -75 -70 -92 -81 -41 -26 -42 -37 -4 -31 l30 4 3
-213 c3 -207 4 -215 27 -248 56 -78 172 -82 248 -8 32 30 33 30 48 11 8 -10
15 -22 15 -25 0 -14 69 -39 104 -39 41 0 101 27 130 59 24 26 33 26 41 0 9
-28 63 -59 104 -59 20 0 49 10 68 23 33 22 50 47 33 47 -6 0 -10 -4 -10 -9 0
-16 -38 -19 -59 -4 -20 13 -21 24 -21 168 0 85 -5 177 -11 204 -35 163 -272
177 -370 22 -36 -57 -26 -74 12 -22 81 112 218 91 238 -37 5 -35 4 -57 -3 -67
-6 -8 -49 -28 -96 -45 -135 -50 -184 -89 -192 -155 -2 -20 -14 -37 -37 -52
-46 -31 -77 -29 -112 6 l-29 29 0 201 0 201 80 0 c78 0 80 1 70 20 -9 17 -21
20 -80 20 l-69 0 -3 70 -3 71 -60 -61z m539 -437 c-2 -88 -4 -98 -25 -114 -82
-61 -181 8 -149 105 14 43 33 59 95 85 82 33 80 34 79 -76z"/>
<path d="M4264 2041 c-17 -11 -47 -40 -65 -66 l-34 -47 -3 55 -3 56 -79 3
c-44 2 -90 0 -102 -4 -22 -6 -22 -6 2 -7 48 -2 50 -10 50 -251 0 -234 -3 -250
-42 -250 -10 0 -18 -4 -18 -10 0 -6 53 -10 140 -10 87 0 140 4 140 10 0 6 -15
10 -33 10 -18 0 -38 5 -45 12 -8 8 -12 65 -12 191 l0 179 29 29 c40 40 79 39
124 -3 l34 -33 23 53 c12 29 21 54 19 55 -2 2 -17 13 -33 25 -35 27 -52 27
-92 3z"/>
<path d="M4599 2045 c-59 -19 -128 -80 -159 -141 -33 -65 -35 -177 -4 -244 24
-52 83 -112 134 -137 160 -76 352 44 368 232 15 193 -163 346 -339 290z m139
-32 c13 -8 34 -36 45 -61 19 -41 22 -65 22 -177 0 -120 -2 -133 -25 -175 -47
-84 -121 -101 -180 -41 -36 35 -51 85 -57 190 -14 215 79 340 195 264z"/>
<path d="M5276 2046 c-21 -8 -58 -34 -82 -57 l-44 -43 0 47 0 47 -62 1 c-35 0
-78 2 -95 3 -41 4 -44 -9 -4 -17 18 -4 31 -14 35 -29 10 -40 7 -428 -4 -449
-6 -11 -21 -19 -35 -19 -14 0 -25 -4 -25 -10 0 -6 50 -10 130 -10 80 0 130 4
130 10 0 6 -9 10 -19 10 -46 0 -51 20 -51 212 0 165 2 182 20 209 26 35 77 51
126 38 28 -8 40 -19 55 -52 16 -35 19 -66 19 -199 0 -176 -7 -208 -45 -208
-14 0 -25 -4 -25 -10 0 -6 50 -10 130 -10 80 0 130 4 130 10 0 6 -11 10 -25
10 -14 0 -29 8 -35 19 -6 12 -10 96 -10 203 0 171 -2 186 -23 222 -12 22 -33
47 -47 57 -35 26 -97 32 -144 15z"/>
<path d="M6055 2036 c-48 -18 -102 -77 -111 -121 -7 -38 14 -93 47 -124 13
-13 59 -41 102 -62 99 -50 117 -68 117 -117 0 -56 -33 -84 -98 -84 -82 0 -144
47 -158 118 -3 19 -10 34 -15 34 -13 0 -7 -129 6 -139 19 -17 119 -41 164 -41
58 0 119 28 154 69 33 39 41 69 34 123 -7 55 -51 98 -158 153 -48 25 -90 52
-93 61 -20 52 6 107 58 120 61 15 146 -48 146 -107 0 -19 5 -29 15 -29 12 0
15 13 15 60 0 60 0 60 -37 76 -54 23 -140 27 -188 10z"/>
<path d="M5636 2026 c18 -8 34 -24 37 -37 11 -38 8 -405 -3 -433 -7 -19 -17
-26 -35 -26 -14 0 -25 -4 -25 -10 0 -6 50 -10 130 -10 80 0 130 4 130 10 0 6
-11 10 -25 10 -14 0 -29 8 -35 19 -6 12 -10 112 -10 255 l0 236 -97 0 c-91 -1
-96 -2 -67 -14z"/>
</g>
</svg>
